<mxfile host="Electron" agent="Mozilla/5.0 (X11; Linux x86_64) AppleWebKit/537.36 (KHTML, like Gecko) draw.io/24.7.8 Chrome/128.0.6613.36 Electron/32.0.1 Safari/537.36" version="24.7.8">
  <diagram name="Page-1" id="SSF-qRTuFEGHfWK87924">
    <mxGraphModel dx="2243" dy="826" grid="1" gridSize="10" guides="1" tooltips="1" connect="1" arrows="1" fold="1" page="1" pageScale="1" pageWidth="850" pageHeight="1100" math="1" shadow="0">
      <root>
        <mxCell id="0" />
        <mxCell id="1" parent="0" />
        <mxCell id="XbLqfCah3fl3YUQZX58t-34" value="&lt;font color=&quot;#67ab9f&quot; style=&quot;font-size: 14px;&quot;&gt;$$x[n]$$&lt;/font&gt;" style="text;html=1;align=center;verticalAlign=middle;whiteSpace=wrap;rounded=0;" parent="1" vertex="1">
          <mxGeometry x="-20" y="203" width="60" height="30" as="geometry" />
        </mxCell>
        <mxCell id="XbLqfCah3fl3YUQZX58t-45" value="&lt;font color=&quot;#67ab9f&quot; style=&quot;font-size: 14px;&quot;&gt;$$x[2n]$$&lt;/font&gt;" style="text;html=1;align=center;verticalAlign=middle;whiteSpace=wrap;rounded=0;" parent="1" vertex="1">
          <mxGeometry x="540" y="419" width="60" height="30" as="geometry" />
        </mxCell>
        <mxCell id="XbLqfCah3fl3YUQZX58t-52" value="" style="endArrow=blockThin;html=1;rounded=0;strokeWidth=2;endFill=1;" parent="1" edge="1">
          <mxGeometry width="50" height="50" relative="1" as="geometry">
            <mxPoint y="320" as="sourcePoint" />
            <mxPoint x="400" y="320" as="targetPoint" />
          </mxGeometry>
        </mxCell>
        <mxCell id="XbLqfCah3fl3YUQZX58t-53" value="" style="endArrow=none;html=1;rounded=0;strokeWidth=1;fillColor=#d5e8d4;strokeColor=#CCCCCC;dashed=1;dashPattern=12 12;" parent="1" edge="1">
          <mxGeometry width="50" height="50" relative="1" as="geometry">
            <mxPoint x="30" y="240" as="sourcePoint" />
            <mxPoint x="380" y="240" as="targetPoint" />
          </mxGeometry>
        </mxCell>
        <mxCell id="XbLqfCah3fl3YUQZX58t-54" value="" style="endArrow=oval;html=1;rounded=0;strokeColor=#EA6B66;strokeWidth=3;fillColor=#f8cecc;endFill=1;" parent="1" edge="1">
          <mxGeometry width="50" height="50" relative="1" as="geometry">
            <mxPoint x="40" y="320" as="sourcePoint" />
            <mxPoint x="40" y="240" as="targetPoint" />
          </mxGeometry>
        </mxCell>
        <mxCell id="XbLqfCah3fl3YUQZX58t-55" value="" style="endArrow=oval;html=1;rounded=0;strokeColor=#82b366;strokeWidth=3;fillColor=#d5e8d4;endFill=1;" parent="1" edge="1">
          <mxGeometry width="50" height="50" relative="1" as="geometry">
            <mxPoint x="120" y="320" as="sourcePoint" />
            <mxPoint x="120" y="280" as="targetPoint" />
          </mxGeometry>
        </mxCell>
        <mxCell id="XbLqfCah3fl3YUQZX58t-56" value="$$0$$" style="text;html=1;align=center;verticalAlign=middle;whiteSpace=wrap;rounded=0;" parent="1" vertex="1">
          <mxGeometry x="10" y="320" width="60" height="30" as="geometry" />
        </mxCell>
        <mxCell id="XbLqfCah3fl3YUQZX58t-57" value="$$1$$" style="text;html=1;align=center;verticalAlign=middle;whiteSpace=wrap;rounded=0;" parent="1" vertex="1">
          <mxGeometry x="90" y="320" width="60" height="30" as="geometry" />
        </mxCell>
        <mxCell id="XbLqfCah3fl3YUQZX58t-58" value="" style="endArrow=oval;html=1;rounded=0;strokeColor=#EA6B66;strokeWidth=3;fillColor=#f8cecc;endFill=1;" parent="1" edge="1">
          <mxGeometry width="50" height="50" relative="1" as="geometry">
            <mxPoint x="200" y="320" as="sourcePoint" />
            <mxPoint x="200" y="260" as="targetPoint" />
          </mxGeometry>
        </mxCell>
        <mxCell id="XbLqfCah3fl3YUQZX58t-59" value="$$2$$" style="text;html=1;align=center;verticalAlign=middle;whiteSpace=wrap;rounded=0;" parent="1" vertex="1">
          <mxGeometry x="170" y="320" width="60" height="30" as="geometry" />
        </mxCell>
        <mxCell id="XbLqfCah3fl3YUQZX58t-60" value="&lt;font style=&quot;font-size: 14px;&quot;&gt;$$n$$&lt;/font&gt;" style="text;html=1;align=center;verticalAlign=middle;whiteSpace=wrap;rounded=0;" parent="1" vertex="1">
          <mxGeometry x="370" y="320" width="60" height="30" as="geometry" />
        </mxCell>
        <mxCell id="XbLqfCah3fl3YUQZX58t-61" value="" style="endArrow=oval;html=1;rounded=0;strokeColor=#82b366;strokeWidth=3;fillColor=#d5e8d4;endFill=1;" parent="1" edge="1">
          <mxGeometry width="50" height="50" relative="1" as="geometry">
            <mxPoint x="279.6" y="320" as="sourcePoint" />
            <mxPoint x="280" y="280" as="targetPoint" />
          </mxGeometry>
        </mxCell>
        <mxCell id="XbLqfCah3fl3YUQZX58t-62" value="$$3$$" style="text;html=1;align=center;verticalAlign=middle;whiteSpace=wrap;rounded=0;" parent="1" vertex="1">
          <mxGeometry x="250" y="320" width="60" height="30" as="geometry" />
        </mxCell>
        <mxCell id="XbLqfCah3fl3YUQZX58t-63" value="" style="endArrow=blockThin;html=1;rounded=0;strokeWidth=2;endFill=1;" parent="1" edge="1">
          <mxGeometry width="50" height="50" relative="1" as="geometry">
            <mxPoint x="560" y="529" as="sourcePoint" />
            <mxPoint x="960" y="529" as="targetPoint" />
          </mxGeometry>
        </mxCell>
        <mxCell id="XbLqfCah3fl3YUQZX58t-64" value="" style="endArrow=none;html=1;rounded=0;strokeWidth=1;fillColor=#d5e8d4;strokeColor=#CCCCCC;dashed=1;dashPattern=12 12;" parent="1" edge="1">
          <mxGeometry width="50" height="50" relative="1" as="geometry">
            <mxPoint x="590" y="449" as="sourcePoint" />
            <mxPoint x="940" y="449" as="targetPoint" />
          </mxGeometry>
        </mxCell>
        <mxCell id="XbLqfCah3fl3YUQZX58t-65" value="" style="endArrow=oval;html=1;rounded=0;strokeColor=#EA6B66;strokeWidth=3;fillColor=#f8cecc;endFill=1;" parent="1" edge="1">
          <mxGeometry width="50" height="50" relative="1" as="geometry">
            <mxPoint x="600" y="529" as="sourcePoint" />
            <mxPoint x="600" y="449" as="targetPoint" />
          </mxGeometry>
        </mxCell>
        <mxCell id="XbLqfCah3fl3YUQZX58t-67" value="$$0$$" style="text;html=1;align=center;verticalAlign=middle;whiteSpace=wrap;rounded=0;" parent="1" vertex="1">
          <mxGeometry x="570" y="529" width="60" height="30" as="geometry" />
        </mxCell>
        <mxCell id="XbLqfCah3fl3YUQZX58t-69" value="" style="endArrow=oval;html=1;rounded=0;strokeColor=#EA6B66;strokeWidth=3;fillColor=#f8cecc;endFill=1;" parent="1" edge="1">
          <mxGeometry width="50" height="50" relative="1" as="geometry">
            <mxPoint x="760" y="529" as="sourcePoint" />
            <mxPoint x="760" y="469" as="targetPoint" />
          </mxGeometry>
        </mxCell>
        <mxCell id="XbLqfCah3fl3YUQZX58t-70" value="$$1$$" style="text;html=1;align=center;verticalAlign=middle;whiteSpace=wrap;rounded=0;" parent="1" vertex="1">
          <mxGeometry x="730" y="529" width="60" height="30" as="geometry" />
        </mxCell>
        <mxCell id="XbLqfCah3fl3YUQZX58t-71" value="&lt;font style=&quot;font-size: 14px;&quot;&gt;$$n$$&lt;/font&gt;" style="text;html=1;align=center;verticalAlign=middle;whiteSpace=wrap;rounded=0;" parent="1" vertex="1">
          <mxGeometry x="930" y="529" width="60" height="30" as="geometry" />
        </mxCell>
        <mxCell id="XbLqfCah3fl3YUQZX58t-79" value="&lt;font color=&quot;#7ea6e0&quot; size=&quot;1&quot; style=&quot;&quot;&gt;&lt;i style=&quot;font-size: 12px;&quot;&gt;downsampling factor 2&lt;/i&gt;&lt;/font&gt;" style="text;html=1;align=center;verticalAlign=middle;whiteSpace=wrap;rounded=0;" parent="1" vertex="1">
          <mxGeometry x="550" y="290" width="60" height="30" as="geometry" />
        </mxCell>
        <mxCell id="OnHr4BB3oqXMqhmjCCAJ-2" value="" style="endArrow=oval;html=1;rounded=0;strokeColor=#EA6B66;strokeWidth=3;fillColor=#f8cecc;endFill=1;" edge="1" parent="1">
          <mxGeometry width="50" height="50" relative="1" as="geometry">
            <mxPoint x="360" y="320" as="sourcePoint" />
            <mxPoint x="360" y="240" as="targetPoint" />
          </mxGeometry>
        </mxCell>
        <mxCell id="OnHr4BB3oqXMqhmjCCAJ-3" value="$$4$$" style="text;html=1;align=center;verticalAlign=middle;whiteSpace=wrap;rounded=0;" vertex="1" parent="1">
          <mxGeometry x="330" y="320" width="60" height="30" as="geometry" />
        </mxCell>
        <mxCell id="OnHr4BB3oqXMqhmjCCAJ-4" value="" style="endArrow=oval;html=1;rounded=0;strokeColor=#EA6B66;strokeWidth=3;fillColor=#f8cecc;endFill=1;" edge="1" parent="1">
          <mxGeometry width="50" height="50" relative="1" as="geometry">
            <mxPoint x="919.71" y="529" as="sourcePoint" />
            <mxPoint x="919.71" y="449" as="targetPoint" />
          </mxGeometry>
        </mxCell>
        <mxCell id="OnHr4BB3oqXMqhmjCCAJ-5" value="$$2$$" style="text;html=1;align=center;verticalAlign=middle;whiteSpace=wrap;rounded=0;" vertex="1" parent="1">
          <mxGeometry x="890" y="529" width="60" height="30" as="geometry" />
        </mxCell>
        <mxCell id="OnHr4BB3oqXMqhmjCCAJ-6" value="" style="endArrow=baseDash;html=1;rounded=0;startArrow=baseDash;startFill=0;endFill=0;fillColor=#ffe6cc;strokeColor=#FFCCE6;strokeWidth=2;" edge="1" parent="1">
          <mxGeometry width="50" height="50" relative="1" as="geometry">
            <mxPoint x="40" y="203" as="sourcePoint" />
            <mxPoint x="200" y="203" as="targetPoint" />
          </mxGeometry>
        </mxCell>
        <mxCell id="OnHr4BB3oqXMqhmjCCAJ-7" value="&lt;font color=&quot;#ffcce6&quot; style=&quot;font-size: 14px;&quot;&gt;&lt;b&gt;$$z^2$$&lt;/b&gt;&lt;/font&gt;" style="text;html=1;align=center;verticalAlign=middle;whiteSpace=wrap;rounded=0;" vertex="1" parent="1">
          <mxGeometry x="90" y="173" width="60" height="30" as="geometry" />
        </mxCell>
        <mxCell id="OnHr4BB3oqXMqhmjCCAJ-8" value="" style="endArrow=baseDash;html=1;rounded=0;startArrow=baseDash;startFill=0;endFill=0;fillColor=#ffe6cc;strokeColor=#FFCCE6;strokeWidth=2;" edge="1" parent="1">
          <mxGeometry width="50" height="50" relative="1" as="geometry">
            <mxPoint x="600" y="428.43" as="sourcePoint" />
            <mxPoint x="760" y="428.43" as="targetPoint" />
          </mxGeometry>
        </mxCell>
        <mxCell id="OnHr4BB3oqXMqhmjCCAJ-9" value="&lt;font color=&quot;#ffcce6&quot; style=&quot;font-size: 14px;&quot;&gt;&lt;b&gt;$$z$$&lt;/b&gt;&lt;/font&gt;" style="text;html=1;align=center;verticalAlign=middle;whiteSpace=wrap;rounded=0;" vertex="1" parent="1">
          <mxGeometry x="650" y="399" width="60" height="30" as="geometry" />
        </mxCell>
        <mxCell id="OnHr4BB3oqXMqhmjCCAJ-10" value="" style="endArrow=baseDash;html=1;rounded=0;startArrow=baseDash;startFill=0;endFill=0;fillColor=#d5e8d4;strokeColor=#D5E8D4;strokeWidth=2;" edge="1" parent="1">
          <mxGeometry width="50" height="50" relative="1" as="geometry">
            <mxPoint x="120" y="213" as="sourcePoint" />
            <mxPoint x="280" y="213" as="targetPoint" />
          </mxGeometry>
        </mxCell>
        <mxCell id="OnHr4BB3oqXMqhmjCCAJ-11" value="" style="endArrow=baseDash;html=1;rounded=0;startArrow=baseDash;startFill=0;endFill=0;fillColor=#ffe6cc;strokeColor=#FFCCE6;strokeWidth=2;" edge="1" parent="1">
          <mxGeometry width="50" height="50" relative="1" as="geometry">
            <mxPoint x="760" y="428.43" as="sourcePoint" />
            <mxPoint x="920" y="428.43" as="targetPoint" />
          </mxGeometry>
        </mxCell>
        <mxCell id="OnHr4BB3oqXMqhmjCCAJ-12" value="" style="endArrow=baseDash;html=1;rounded=0;startArrow=baseDash;startFill=0;endFill=0;fillColor=#ffe6cc;strokeColor=#FFCCE6;strokeWidth=2;" edge="1" parent="1">
          <mxGeometry width="50" height="50" relative="1" as="geometry">
            <mxPoint x="200" y="223" as="sourcePoint" />
            <mxPoint x="360" y="223" as="targetPoint" />
          </mxGeometry>
        </mxCell>
        <mxCell id="OnHr4BB3oqXMqhmjCCAJ-13" value="" style="shape=flexArrow;endArrow=classic;html=1;rounded=0;strokeColor=#7EA6E0;" edge="1" parent="1">
          <mxGeometry width="50" height="50" relative="1" as="geometry">
            <mxPoint x="425" y="285" as="sourcePoint" />
            <mxPoint x="600" y="385" as="targetPoint" />
          </mxGeometry>
        </mxCell>
        <mxCell id="OnHr4BB3oqXMqhmjCCAJ-14" value="&lt;font color=&quot;#67ab9f&quot; style=&quot;font-size: 14px;&quot;&gt;$$x[n-2]$$&lt;/font&gt;" style="text;html=1;align=center;verticalAlign=middle;whiteSpace=wrap;rounded=0;" vertex="1" parent="1">
          <mxGeometry x="-20" y="443" width="60" height="30" as="geometry" />
        </mxCell>
        <mxCell id="OnHr4BB3oqXMqhmjCCAJ-15" value="" style="endArrow=blockThin;html=1;rounded=0;strokeWidth=2;endFill=1;" edge="1" parent="1">
          <mxGeometry width="50" height="50" relative="1" as="geometry">
            <mxPoint y="560" as="sourcePoint" />
            <mxPoint x="400" y="560" as="targetPoint" />
          </mxGeometry>
        </mxCell>
        <mxCell id="OnHr4BB3oqXMqhmjCCAJ-16" value="" style="endArrow=none;html=1;rounded=0;strokeWidth=1;fillColor=#d5e8d4;strokeColor=#CCCCCC;dashed=1;dashPattern=12 12;" edge="1" parent="1">
          <mxGeometry width="50" height="50" relative="1" as="geometry">
            <mxPoint x="30" y="480" as="sourcePoint" />
            <mxPoint x="380" y="480" as="targetPoint" />
          </mxGeometry>
        </mxCell>
        <mxCell id="OnHr4BB3oqXMqhmjCCAJ-17" value="" style="endArrow=oval;html=1;rounded=0;strokeColor=#EA6B66;strokeWidth=3;fillColor=#f8cecc;endFill=1;" edge="1" parent="1">
          <mxGeometry width="50" height="50" relative="1" as="geometry">
            <mxPoint x="200" y="560" as="sourcePoint" />
            <mxPoint x="200" y="480" as="targetPoint" />
          </mxGeometry>
        </mxCell>
        <mxCell id="OnHr4BB3oqXMqhmjCCAJ-18" value="" style="endArrow=oval;html=1;rounded=0;strokeColor=#82b366;strokeWidth=3;fillColor=#d5e8d4;endFill=1;" edge="1" parent="1">
          <mxGeometry width="50" height="50" relative="1" as="geometry">
            <mxPoint x="280" y="560" as="sourcePoint" />
            <mxPoint x="280" y="520" as="targetPoint" />
          </mxGeometry>
        </mxCell>
        <mxCell id="OnHr4BB3oqXMqhmjCCAJ-19" value="$$0$$" style="text;html=1;align=center;verticalAlign=middle;whiteSpace=wrap;rounded=0;" vertex="1" parent="1">
          <mxGeometry x="10" y="560" width="60" height="30" as="geometry" />
        </mxCell>
        <mxCell id="OnHr4BB3oqXMqhmjCCAJ-20" value="$$1$$" style="text;html=1;align=center;verticalAlign=middle;whiteSpace=wrap;rounded=0;" vertex="1" parent="1">
          <mxGeometry x="90" y="560" width="60" height="30" as="geometry" />
        </mxCell>
        <mxCell id="OnHr4BB3oqXMqhmjCCAJ-21" value="" style="endArrow=oval;html=1;rounded=0;strokeColor=#EA6B66;strokeWidth=3;fillColor=#f8cecc;endFill=1;" edge="1" parent="1">
          <mxGeometry width="50" height="50" relative="1" as="geometry">
            <mxPoint x="360" y="560" as="sourcePoint" />
            <mxPoint x="360" y="500" as="targetPoint" />
          </mxGeometry>
        </mxCell>
        <mxCell id="OnHr4BB3oqXMqhmjCCAJ-22" value="$$2$$" style="text;html=1;align=center;verticalAlign=middle;whiteSpace=wrap;rounded=0;" vertex="1" parent="1">
          <mxGeometry x="170" y="560" width="60" height="30" as="geometry" />
        </mxCell>
        <mxCell id="OnHr4BB3oqXMqhmjCCAJ-24" value="$$3$$" style="text;html=1;align=center;verticalAlign=middle;whiteSpace=wrap;rounded=0;" vertex="1" parent="1">
          <mxGeometry x="250" y="560" width="60" height="30" as="geometry" />
        </mxCell>
        <mxCell id="OnHr4BB3oqXMqhmjCCAJ-26" value="$$4$$" style="text;html=1;align=center;verticalAlign=middle;whiteSpace=wrap;rounded=0;" vertex="1" parent="1">
          <mxGeometry x="330" y="560" width="60" height="30" as="geometry" />
        </mxCell>
        <mxCell id="OnHr4BB3oqXMqhmjCCAJ-27" value="" style="endArrow=baseDash;html=1;rounded=0;startArrow=baseDash;startFill=0;endFill=0;fillColor=#ffe6cc;strokeColor=#FFCCE6;strokeWidth=2;" edge="1" parent="1">
          <mxGeometry width="50" height="50" relative="1" as="geometry">
            <mxPoint x="40" y="443" as="sourcePoint" />
            <mxPoint x="200" y="443" as="targetPoint" />
          </mxGeometry>
        </mxCell>
        <mxCell id="OnHr4BB3oqXMqhmjCCAJ-28" value="&lt;font color=&quot;#ffcce6&quot; style=&quot;font-size: 14px;&quot;&gt;&lt;b&gt;$$z^2$$&lt;/b&gt;&lt;/font&gt;" style="text;html=1;align=center;verticalAlign=middle;whiteSpace=wrap;rounded=0;" vertex="1" parent="1">
          <mxGeometry x="80" y="413" width="60" height="30" as="geometry" />
        </mxCell>
        <mxCell id="OnHr4BB3oqXMqhmjCCAJ-29" value="" style="endArrow=baseDash;html=1;rounded=0;startArrow=baseDash;startFill=0;endFill=0;fillColor=#d5e8d4;strokeColor=#D5E8D4;strokeWidth=2;" edge="1" parent="1">
          <mxGeometry width="50" height="50" relative="1" as="geometry">
            <mxPoint x="120" y="453" as="sourcePoint" />
            <mxPoint x="280" y="453" as="targetPoint" />
          </mxGeometry>
        </mxCell>
        <mxCell id="OnHr4BB3oqXMqhmjCCAJ-30" value="" style="endArrow=baseDash;html=1;rounded=0;startArrow=baseDash;startFill=0;endFill=0;fillColor=#ffe6cc;strokeColor=#FFCCE6;strokeWidth=2;" edge="1" parent="1">
          <mxGeometry width="50" height="50" relative="1" as="geometry">
            <mxPoint x="200" y="463" as="sourcePoint" />
            <mxPoint x="360" y="463" as="targetPoint" />
          </mxGeometry>
        </mxCell>
        <mxCell id="OnHr4BB3oqXMqhmjCCAJ-31" value="" style="shape=flexArrow;endArrow=classic;html=1;rounded=0;strokeColor=#7EA6E0;" edge="1" parent="1">
          <mxGeometry width="50" height="50" relative="1" as="geometry">
            <mxPoint x="199.88" y="368" as="sourcePoint" />
            <mxPoint x="199.70999999999998" y="426" as="targetPoint" />
          </mxGeometry>
        </mxCell>
        <mxCell id="OnHr4BB3oqXMqhmjCCAJ-32" value="&lt;font color=&quot;#7ea6e0&quot; style=&quot;font-size: 14px;&quot;&gt;&lt;b style=&quot;&quot;&gt;$$H(z^2)=z^{-2}$$&lt;/b&gt;&lt;/font&gt;" style="text;html=1;align=center;verticalAlign=middle;whiteSpace=wrap;rounded=0;" vertex="1" parent="1">
          <mxGeometry x="230" y="377" width="60" height="30" as="geometry" />
        </mxCell>
        <mxCell id="OnHr4BB3oqXMqhmjCCAJ-33" value="" style="shape=flexArrow;endArrow=classic;html=1;rounded=0;strokeColor=#7EA6E0;" edge="1" parent="1">
          <mxGeometry width="50" height="50" relative="1" as="geometry">
            <mxPoint x="760.17" y="608" as="sourcePoint" />
            <mxPoint x="760" y="666" as="targetPoint" />
          </mxGeometry>
        </mxCell>
        <mxCell id="OnHr4BB3oqXMqhmjCCAJ-34" value="&lt;font color=&quot;#7ea6e0&quot; style=&quot;font-size: 14px;&quot;&gt;&lt;b style=&quot;&quot;&gt;$$H(z)=z^{-1}$$&lt;/b&gt;&lt;/font&gt;" style="text;html=1;align=center;verticalAlign=middle;whiteSpace=wrap;rounded=0;" vertex="1" parent="1">
          <mxGeometry x="790" y="620" width="60" height="30" as="geometry" />
        </mxCell>
        <mxCell id="OnHr4BB3oqXMqhmjCCAJ-38" value="" style="endArrow=blockThin;html=1;rounded=0;strokeWidth=2;endFill=1;" edge="1" parent="1">
          <mxGeometry width="50" height="50" relative="1" as="geometry">
            <mxPoint x="560" y="799.57" as="sourcePoint" />
            <mxPoint x="960" y="799.57" as="targetPoint" />
          </mxGeometry>
        </mxCell>
        <mxCell id="OnHr4BB3oqXMqhmjCCAJ-39" value="" style="endArrow=none;html=1;rounded=0;strokeWidth=1;fillColor=#d5e8d4;strokeColor=#CCCCCC;dashed=1;dashPattern=12 12;" edge="1" parent="1">
          <mxGeometry width="50" height="50" relative="1" as="geometry">
            <mxPoint x="590" y="719.57" as="sourcePoint" />
            <mxPoint x="940" y="719.57" as="targetPoint" />
          </mxGeometry>
        </mxCell>
        <mxCell id="OnHr4BB3oqXMqhmjCCAJ-40" value="" style="endArrow=oval;html=1;rounded=0;strokeColor=#EA6B66;strokeWidth=3;fillColor=#f8cecc;endFill=1;" edge="1" parent="1">
          <mxGeometry width="50" height="50" relative="1" as="geometry">
            <mxPoint x="760" y="799.57" as="sourcePoint" />
            <mxPoint x="760" y="719.57" as="targetPoint" />
          </mxGeometry>
        </mxCell>
        <mxCell id="OnHr4BB3oqXMqhmjCCAJ-41" value="$$0$$" style="text;html=1;align=center;verticalAlign=middle;whiteSpace=wrap;rounded=0;" vertex="1" parent="1">
          <mxGeometry x="570" y="799.57" width="60" height="30" as="geometry" />
        </mxCell>
        <mxCell id="OnHr4BB3oqXMqhmjCCAJ-42" value="" style="endArrow=oval;html=1;rounded=0;strokeColor=#EA6B66;strokeWidth=3;fillColor=#f8cecc;endFill=1;" edge="1" parent="1">
          <mxGeometry width="50" height="50" relative="1" as="geometry">
            <mxPoint x="920" y="799.57" as="sourcePoint" />
            <mxPoint x="920" y="739.57" as="targetPoint" />
          </mxGeometry>
        </mxCell>
        <mxCell id="OnHr4BB3oqXMqhmjCCAJ-43" value="$$1$$" style="text;html=1;align=center;verticalAlign=middle;whiteSpace=wrap;rounded=0;" vertex="1" parent="1">
          <mxGeometry x="730" y="799.57" width="60" height="30" as="geometry" />
        </mxCell>
        <mxCell id="OnHr4BB3oqXMqhmjCCAJ-44" value="&lt;font style=&quot;font-size: 14px;&quot;&gt;$$n$$&lt;/font&gt;" style="text;html=1;align=center;verticalAlign=middle;whiteSpace=wrap;rounded=0;" vertex="1" parent="1">
          <mxGeometry x="930" y="799.57" width="60" height="30" as="geometry" />
        </mxCell>
        <mxCell id="OnHr4BB3oqXMqhmjCCAJ-46" value="$$2$$" style="text;html=1;align=center;verticalAlign=middle;whiteSpace=wrap;rounded=0;" vertex="1" parent="1">
          <mxGeometry x="890" y="799.57" width="60" height="30" as="geometry" />
        </mxCell>
        <mxCell id="OnHr4BB3oqXMqhmjCCAJ-47" value="" style="endArrow=baseDash;html=1;rounded=0;startArrow=baseDash;startFill=0;endFill=0;fillColor=#ffe6cc;strokeColor=#FFCCE6;strokeWidth=2;" edge="1" parent="1">
          <mxGeometry width="50" height="50" relative="1" as="geometry">
            <mxPoint x="600" y="699.0000000000001" as="sourcePoint" />
            <mxPoint x="760" y="699.0000000000001" as="targetPoint" />
          </mxGeometry>
        </mxCell>
        <mxCell id="OnHr4BB3oqXMqhmjCCAJ-48" value="&lt;font color=&quot;#ffcce6&quot; style=&quot;font-size: 14px;&quot;&gt;&lt;b&gt;$$z$$&lt;/b&gt;&lt;/font&gt;" style="text;html=1;align=center;verticalAlign=middle;whiteSpace=wrap;rounded=0;" vertex="1" parent="1">
          <mxGeometry x="650" y="665" width="60" height="30" as="geometry" />
        </mxCell>
        <mxCell id="OnHr4BB3oqXMqhmjCCAJ-49" value="" style="endArrow=baseDash;html=1;rounded=0;startArrow=baseDash;startFill=0;endFill=0;fillColor=#ffe6cc;strokeColor=#FFCCE6;strokeWidth=2;" edge="1" parent="1">
          <mxGeometry width="50" height="50" relative="1" as="geometry">
            <mxPoint x="760" y="699.0000000000001" as="sourcePoint" />
            <mxPoint x="920" y="699.0000000000001" as="targetPoint" />
          </mxGeometry>
        </mxCell>
        <mxCell id="OnHr4BB3oqXMqhmjCCAJ-50" value="" style="endArrow=baseDash;html=1;rounded=0;startArrow=baseDash;startFill=0;endFill=0;fillColor=#dae8fc;strokeColor=#6c8ebf;strokeWidth=2;dashed=1;" edge="1" parent="1">
          <mxGeometry width="50" height="50" relative="1" as="geometry">
            <mxPoint x="40" y="349.43" as="sourcePoint" />
            <mxPoint x="120" y="350" as="targetPoint" />
          </mxGeometry>
        </mxCell>
        <mxCell id="OnHr4BB3oqXMqhmjCCAJ-51" value="&lt;font size=&quot;1&quot; color=&quot;#7ea6e0&quot; style=&quot;&quot;&gt;&lt;b style=&quot;font-size: 12px;&quot;&gt;$$T$$&lt;/b&gt;&lt;/font&gt;" style="text;html=1;align=center;verticalAlign=middle;whiteSpace=wrap;rounded=0;" vertex="1" parent="1">
          <mxGeometry x="50" y="350" width="60" height="30" as="geometry" />
        </mxCell>
        <mxCell id="OnHr4BB3oqXMqhmjCCAJ-53" value="" style="endArrow=baseDash;html=1;rounded=0;startArrow=baseDash;startFill=0;endFill=0;fillColor=#dae8fc;strokeColor=#6c8ebf;strokeWidth=2;dashed=1;entryX=0.5;entryY=1;entryDx=0;entryDy=0;" edge="1" parent="1" target="XbLqfCah3fl3YUQZX58t-70">
          <mxGeometry width="50" height="50" relative="1" as="geometry">
            <mxPoint x="600" y="558.4300000000001" as="sourcePoint" />
            <mxPoint x="680" y="559" as="targetPoint" />
          </mxGeometry>
        </mxCell>
        <mxCell id="OnHr4BB3oqXMqhmjCCAJ-54" value="&lt;font size=&quot;1&quot; color=&quot;#7ea6e0&quot; style=&quot;&quot;&gt;&lt;b style=&quot;font-size: 12px;&quot;&gt;$$2T$$&lt;/b&gt;&lt;/font&gt;" style="text;html=1;align=center;verticalAlign=middle;whiteSpace=wrap;rounded=0;" vertex="1" parent="1">
          <mxGeometry x="640" y="559" width="60" height="30" as="geometry" />
        </mxCell>
        <mxCell id="OnHr4BB3oqXMqhmjCCAJ-55" value="" style="shape=flexArrow;endArrow=classic;html=1;rounded=0;strokeColor=#7EA6E0;" edge="1" parent="1">
          <mxGeometry width="50" height="50" relative="1" as="geometry">
            <mxPoint x="199.88" y="614" as="sourcePoint" />
            <mxPoint x="199.70999999999998" y="672" as="targetPoint" />
          </mxGeometry>
        </mxCell>
        <mxCell id="OnHr4BB3oqXMqhmjCCAJ-57" value="&lt;font color=&quot;#7ea6e0&quot; size=&quot;1&quot; style=&quot;&quot;&gt;&lt;i style=&quot;font-size: 12px;&quot;&gt;downsampling factor 2&lt;/i&gt;&lt;/font&gt;" style="text;html=1;align=center;verticalAlign=middle;whiteSpace=wrap;rounded=0;" vertex="1" parent="1">
          <mxGeometry x="230" y="624" width="60" height="30" as="geometry" />
        </mxCell>
        <mxCell id="OnHr4BB3oqXMqhmjCCAJ-88" value="" style="endArrow=blockThin;html=1;rounded=0;strokeWidth=2;endFill=1;" edge="1" parent="1">
          <mxGeometry width="50" height="50" relative="1" as="geometry">
            <mxPoint y="800.57" as="sourcePoint" />
            <mxPoint x="400" y="800.57" as="targetPoint" />
          </mxGeometry>
        </mxCell>
        <mxCell id="OnHr4BB3oqXMqhmjCCAJ-89" value="" style="endArrow=none;html=1;rounded=0;strokeWidth=1;fillColor=#d5e8d4;strokeColor=#CCCCCC;dashed=1;dashPattern=12 12;" edge="1" parent="1">
          <mxGeometry width="50" height="50" relative="1" as="geometry">
            <mxPoint x="30" y="720.57" as="sourcePoint" />
            <mxPoint x="380" y="720.57" as="targetPoint" />
          </mxGeometry>
        </mxCell>
        <mxCell id="OnHr4BB3oqXMqhmjCCAJ-90" value="" style="endArrow=oval;html=1;rounded=0;strokeColor=#EA6B66;strokeWidth=3;fillColor=#f8cecc;endFill=1;" edge="1" parent="1">
          <mxGeometry width="50" height="50" relative="1" as="geometry">
            <mxPoint x="199.65999999999997" y="800.57" as="sourcePoint" />
            <mxPoint x="199.65999999999997" y="720.57" as="targetPoint" />
          </mxGeometry>
        </mxCell>
        <mxCell id="OnHr4BB3oqXMqhmjCCAJ-93" value="$$1$$" style="text;html=1;align=center;verticalAlign=middle;whiteSpace=wrap;rounded=0;" vertex="1" parent="1">
          <mxGeometry x="170" y="800.57" width="60" height="30" as="geometry" />
        </mxCell>
        <mxCell id="OnHr4BB3oqXMqhmjCCAJ-94" value="" style="endArrow=oval;html=1;rounded=0;strokeColor=#EA6B66;strokeWidth=3;fillColor=#f8cecc;endFill=1;" edge="1" parent="1">
          <mxGeometry width="50" height="50" relative="1" as="geometry">
            <mxPoint x="359.65999999999997" y="800.57" as="sourcePoint" />
            <mxPoint x="359.65999999999997" y="740.57" as="targetPoint" />
          </mxGeometry>
        </mxCell>
        <mxCell id="OnHr4BB3oqXMqhmjCCAJ-97" value="$$2$$" style="text;html=1;align=center;verticalAlign=middle;whiteSpace=wrap;rounded=0;" vertex="1" parent="1">
          <mxGeometry x="330" y="800.57" width="60" height="30" as="geometry" />
        </mxCell>
        <mxCell id="OnHr4BB3oqXMqhmjCCAJ-99" value="$$n$$" style="text;html=1;align=center;verticalAlign=middle;whiteSpace=wrap;rounded=0;" vertex="1" parent="1">
          <mxGeometry x="370" y="560" width="60" height="30" as="geometry" />
        </mxCell>
        <mxCell id="OnHr4BB3oqXMqhmjCCAJ-100" value="&lt;font style=&quot;font-size: 14px;&quot;&gt;$$n$$&lt;/font&gt;" style="text;html=1;align=center;verticalAlign=middle;whiteSpace=wrap;rounded=0;" vertex="1" parent="1">
          <mxGeometry x="365" y="800.57" width="60" height="30" as="geometry" />
        </mxCell>
        <mxCell id="OnHr4BB3oqXMqhmjCCAJ-103" value="$$0$$" style="text;html=1;align=center;verticalAlign=middle;whiteSpace=wrap;rounded=0;" vertex="1" parent="1">
          <mxGeometry x="10" y="799.5699999999999" width="60" height="30" as="geometry" />
        </mxCell>
        <mxCell id="OnHr4BB3oqXMqhmjCCAJ-104" value="&lt;font color=&quot;#67ab9f&quot; style=&quot;font-size: 14px;&quot;&gt;$$x[2n-2]$$&lt;/font&gt;" style="text;html=1;align=center;verticalAlign=middle;whiteSpace=wrap;rounded=0;" vertex="1" parent="1">
          <mxGeometry x="10" y="690" width="60" height="30" as="geometry" />
        </mxCell>
        <mxCell id="OnHr4BB3oqXMqhmjCCAJ-105" value="&lt;font color=&quot;#67ab9f&quot; style=&quot;font-size: 14px;&quot;&gt;$$x[2(n-1)]$$&lt;/font&gt;" style="text;html=1;align=center;verticalAlign=middle;whiteSpace=wrap;rounded=0;" vertex="1" parent="1">
          <mxGeometry x="530" y="695" width="60" height="30" as="geometry" />
        </mxCell>
        <mxCell id="OnHr4BB3oqXMqhmjCCAJ-106" value="&lt;font color=&quot;#7ea6e0&quot; size=&quot;1&quot; style=&quot;&quot;&gt;&lt;b style=&quot;font-size: 32px;&quot;&gt;$$=$$&lt;/b&gt;&lt;/font&gt;" style="text;html=1;align=center;verticalAlign=middle;whiteSpace=wrap;rounded=0;" vertex="1" parent="1">
          <mxGeometry x="440" y="730" width="60" height="30" as="geometry" />
        </mxCell>
        <mxCell id="OnHr4BB3oqXMqhmjCCAJ-107" value="&lt;font size=&quot;1&quot; color=&quot;#7ea6e0&quot;&gt;&lt;i&gt;&lt;b style=&quot;font-size: 16px;&quot;&gt;delay by 2T&amp;nbsp;&lt;/b&gt;&lt;/i&gt;&lt;/font&gt;&lt;div&gt;&lt;i style=&quot;color: rgb(126, 166, 224); font-size: x-small; background-color: initial;&quot;&gt;&lt;b style=&quot;font-size: 16px;&quot;&gt;&amp;amp;&lt;/b&gt;&lt;/i&gt;&lt;/div&gt;&lt;div&gt;&lt;i style=&quot;color: rgb(126, 166, 224); font-size: x-small; background-color: initial;&quot;&gt;&lt;b style=&quot;font-size: 16px;&quot;&gt;downsample by 2&lt;/b&gt;&lt;/i&gt;&lt;br&gt;&lt;/div&gt;" style="text;html=1;align=center;verticalAlign=middle;whiteSpace=wrap;rounded=0;" vertex="1" parent="1">
          <mxGeometry x="410" y="143" width="150" height="30" as="geometry" />
        </mxCell>
      </root>
    </mxGraphModel>
  </diagram>
</mxfile>
